<?xml version="1.0" encoding="UTF-8"?>
<svg id="Layer_3" xmlns="http://www.w3.org/2000/svg" version="1.1" viewBox="0 0 879.87 265.44">
  <!-- Generator: Adobe Illustrator 29.4.0, SVG Export Plug-In . SVG Version: 2.1.0 Build 152)  -->
  <defs>
    <style>
      .st0, .st1 {
        fill: #00bfb3;
      }

      .st1 {
        stroke: #00bfb3;
        stroke-miterlimit: 10;
        stroke-width: 10px;
      }
    </style>
  </defs>
  <path class="st0" d="M245.57,408.03l-23.02,51.98h-5.42l-23.02-51.98h5.94l19.9,45.15,20.05-45.15h5.57Z"/>
  <path class="st1" d="M457.25,458.6c-3.54-1.24-6.27-2.87-8.2-4.9l2.15-4.23c1.88,1.88,4.38,3.4,7.5,4.57,3.12,1.16,6.34,1.75,9.65,1.75,4.65,0,8.14-.85,10.47-2.56,2.33-1.71,3.49-3.92,3.49-6.65,0-2.08-.63-3.74-1.89-4.97-1.26-1.24-2.81-2.19-4.64-2.86-1.83-.67-4.38-1.4-7.65-2.19-3.91-.99-7.03-1.94-9.36-2.86s-4.32-2.31-5.98-4.2c-1.66-1.88-2.49-4.43-2.49-7.65,0-2.62.69-5.01,2.08-7.17s3.51-3.87,6.39-5.16c2.87-1.29,6.43-1.93,10.69-1.93,2.97,0,5.88.41,8.72,1.23,2.85.82,5.31,1.94,7.39,3.38l-1.86,4.38c-2.18-1.44-4.51-2.51-6.98-3.23-2.48-.72-4.9-1.08-7.28-1.08-4.55,0-7.98.88-10.28,2.64-2.3,1.76-3.45,4.02-3.45,6.79,0,2.08.63,3.75,1.89,5.01,1.26,1.26,2.85,2.23,4.75,2.9,1.9.67,4.47,1.4,7.68,2.19,3.81.94,6.89,1.87,9.24,2.78,2.35.92,4.34,2.3,5.98,4.16,1.63,1.86,2.45,4.37,2.45,7.54,0,2.62-.71,5.01-2.12,7.17-1.41,2.15-3.58,3.86-6.5,5.12-2.92,1.26-6.51,1.89-10.77,1.89-3.86,0-7.56-.62-11.1-1.86Z"/>
  <g>
    <polygon points="281.47 412.78 285.04 412.78 311.62 412.78 311.62 408.03 275.98 408.03 275.98 412.78 281.47 412.78"/>
    <polygon class="st0" points="281.47 455.25 281.47 435.95 308.35 435.95 308.35 431.27 281.47 431.27 281.47 431.25 275.98 431.25 275.98 460.01 312.73 460.01 312.73 455.25 281.47 455.25"/>
  </g>
  <path class="st0" d="M169.04,420.47c-2.38-4.03-5.63-7.19-9.76-9.47-4.13-2.28-8.77-3.42-13.92-3.42s-9.81,1.15-14,3.45c-4.18,2.3-7.45,5.46-9.8,9.47-2.35,4.01-3.53,8.51-3.53,13.51s1.18,9.5,3.53,13.51c2.35,4.01,5.62,7.17,9.8,9.47.3.17.62.32.93.47v-5.92c-2.44-1.72-4.45-3.87-5.98-6.5-1.91-3.29-2.86-6.97-2.86-11.03s.95-7.73,2.86-11.03c1.91-3.29,4.53-5.87,7.87-7.72,3.34-1.86,7.07-2.78,11.18-2.78s7.82.93,11.14,2.78c3.32,1.86,5.91,4.43,7.8,7.72,1.88,3.29,2.82,6.97,2.82,11.03s-.94,7.73-2.82,11.03c-1.88,3.29-4.48,5.87-7.8,7.72-3.32,1.86-7.03,2.78-11.14,2.78-.03,0-.05,0-.07,0v4.9s.05,0,.07,0c5.15,0,9.79-1.14,13.92-3.42,4.13-2.28,7.39-5.43,9.76-9.47,2.38-4.03,3.56-8.55,3.56-13.55s-1.19-9.52-3.56-13.55Z"/>
  <path class="st0" d="M376.93,442.18c3.81-1.24,6.74-3.25,8.8-6.05,2.05-2.8,3.08-6.22,3.08-10.28,0-5.54-1.88-9.9-5.64-13.07-3.76-3.17-8.96-4.75-15.59-4.75h-19.45v51.98h5.5v-47.22h13.81c5.15,0,9.08,1.13,11.81,3.38,2.72,2.25,4.08,5.48,4.08,9.69s-1.36,7.3-4.08,9.58c-1.89,1.58-4.39,2.6-7.45,3.09v4.86l11.83,16.63h6.01l-12.7-17.82Z"/>
  <path class="st1" d="M568.65,426.27c-1.36-4.6-3.59-8.5-6.67-11.71-3.27-3.4-7.16-5.72-11.68-6.97-4.51-1.25-9.18-1.22-14.01.07-4.83,1.3-8.88,3.62-12.16,6.96-3.28,3.34-5.48,7.3-6.61,11.89-1.13,4.58-1.02,9.36.31,14.33,1.34,4.97,3.66,9.18,6.97,12.62,3.31,3.44,7.2,5.78,11.69,7.01,4.48,1.23,9.14,1.2,13.97-.1,4.83-1.3,8.87-3.6,12.14-6.91,3.15-3.19,5.3-7,6.47-11.43,0,0-.1.4-.06.24.08-.34,0,.1.06-.24l-5.38.03c-1.02,2.81-2.58,5.3-4.73,7.46-2.68,2.7-5.99,4.57-9.91,5.62-3.92,1.05-7.72,1.09-11.39.1-3.67-.99-6.84-2.85-9.5-5.6-2.66-2.75-4.52-6.1-5.59-10.07-1.07-3.97-1.13-7.79-.2-11.48.93-3.68,2.74-6.86,5.43-9.53,2.69-2.67,6-4.53,9.92-5.59,3.92-1.05,7.71-1.1,11.38-.14,3.67.96,6.83,2.8,9.48,5.52,2.17,2.22,4.31,6.35,5.42,9.4"/>
  <path class="st1" d="M641.14,420.47c-2.38-4.03-5.63-7.19-9.76-9.47-4.13-2.28-8.77-3.42-13.92-3.42s-9.81,1.15-14,3.45c-4.18,2.3-7.45,5.46-9.8,9.47-2.35,4.01-3.53,8.51-3.53,13.51s1.18,9.5,3.53,13.51c2.35,4.01,5.62,7.17,9.8,9.47.3.17.62.32.93.47v-5.92c-2.44-1.72-4.45-3.87-5.98-6.5-1.91-3.29-2.86-6.97-2.86-11.03s.95-7.73,2.86-11.03c1.91-3.29,4.53-5.87,7.87-7.72,3.34-1.86,7.07-2.78,11.18-2.78s7.82.93,11.14,2.78c3.32,1.86,5.91,4.43,7.8,7.72,1.88,3.29,2.82,6.97,2.82,11.03s-.94,7.73-2.82,11.03c-1.88,3.29-4.48,5.87-7.8,7.72-3.32,1.86-7.03,2.78-11.14,2.78-.03,0-.05,0-.07,0v4.9s.05,0,.07,0c5.15,0,9.79-1.14,13.92-3.42,4.13-2.28,7.39-5.43,9.76-9.47,2.38-4.03,3.56-8.55,3.56-13.55s-1.19-9.52-3.56-13.55Z"/>
  <path class="st1" d="M699.99,442.18c3.81-1.24,6.74-3.25,8.8-6.05,2.05-2.8,3.08-6.22,3.08-10.28,0-5.54-1.88-9.9-5.64-13.07-3.76-3.17-8.96-4.75-15.59-4.75h-19.45v51.98h5.5v-47.22h13.81c5.15,0,9.08,1.13,11.81,3.38,2.72,2.25,4.08,5.48,4.08,9.69s-1.36,7.3-4.08,9.58c-1.89,1.58-4.39,2.6-7.45,3.09v4.86l11.83,16.63h6.01l-12.7-17.82Z"/>
  <g>
    <polygon class="st1" points="753.57 412.78 757.14 412.78 783.72 412.78 783.72 408.03 748.08 408.03 748.08 412.78 753.57 412.78"/>
    <polygon class="st1" points="753.57 455.25 753.57 435.95 780.45 435.95 780.45 431.27 753.57 431.27 753.57 431.25 748.08 431.25 748.08 460.01 784.83 460.01 784.83 455.25 753.57 455.25"/>
  </g>
  <path class="st0" d="M245.57,106.73l-23.02,51.98h-5.42l-23.02-51.98h5.94l19.9,45.15,20.05-45.15h5.57Z"/>
  <path class="st0" d="M457.25,157.3c-3.54-1.24-6.27-2.87-8.2-4.9l2.15-4.23c1.88,1.88,4.38,3.4,7.5,4.57,3.12,1.16,6.34,1.75,9.65,1.75,4.65,0,8.14-.85,10.47-2.56,2.33-1.71,3.49-3.92,3.49-6.65,0-2.08-.63-3.74-1.89-4.97-1.26-1.24-2.81-2.19-4.64-2.86-1.83-.67-4.38-1.4-7.65-2.19-3.91-.99-7.03-1.94-9.36-2.86-2.33-.92-4.32-2.31-5.98-4.2-1.66-1.88-2.49-4.43-2.49-7.65,0-2.62.69-5.01,2.08-7.17s3.51-3.87,6.39-5.16c2.87-1.29,6.43-1.93,10.69-1.93,2.97,0,5.88.41,8.72,1.23,2.85.82,5.31,1.94,7.39,3.38l-1.86,4.38c-2.18-1.44-4.51-2.51-6.98-3.23-2.48-.72-4.9-1.08-7.28-1.08-4.55,0-7.98.88-10.28,2.64-2.3,1.76-3.45,4.02-3.45,6.79,0,2.08.63,3.75,1.89,5.01,1.26,1.26,2.85,2.23,4.75,2.9,1.9.67,4.47,1.4,7.68,2.19,3.81.94,6.89,1.87,9.24,2.78,2.35.92,4.34,2.3,5.98,4.16,1.63,1.86,2.45,4.37,2.45,7.54,0,2.62-.71,5.01-2.12,7.17-1.41,2.15-3.58,3.86-6.5,5.12-2.92,1.26-6.51,1.89-10.77,1.89-3.86,0-7.56-.62-11.1-1.86Z"/>
  <g>
    <polygon points="281.47 111.48 285.04 111.48 311.62 111.48 311.62 106.73 275.98 106.73 275.98 111.48 281.47 111.48"/>
    <polygon class="st0" points="281.47 153.95 281.47 134.65 308.35 134.65 308.35 129.97 281.47 129.97 281.47 129.95 275.98 129.95 275.98 158.71 312.73 158.71 312.73 153.95 281.47 153.95"/>
  </g>
  <path class="st0" d="M169.04,119.17c-2.38-4.03-5.63-7.19-9.76-9.47-4.13-2.28-8.77-3.42-13.92-3.42s-9.81,1.15-14,3.45c-4.18,2.3-7.45,5.46-9.8,9.47-2.35,4.01-3.53,8.51-3.53,13.51s1.18,9.5,3.53,13.51c2.35,4.01,5.62,7.17,9.8,9.47.3.17.62.32.93.47v-5.92c-2.44-1.72-4.45-3.87-5.98-6.5-1.91-3.29-2.86-6.97-2.86-11.03s.95-7.73,2.86-11.03c1.91-3.29,4.53-5.87,7.87-7.72,3.34-1.86,7.07-2.78,11.18-2.78s7.82.93,11.14,2.78c3.32,1.86,5.91,4.43,7.8,7.72,1.88,3.29,2.82,6.97,2.82,11.03s-.94,7.73-2.82,11.03c-1.88,3.29-4.48,5.87-7.8,7.72-3.32,1.86-7.03,2.78-11.14,2.78-.03,0-.05,0-.07,0v4.9s.05,0,.07,0c5.15,0,9.79-1.14,13.92-3.42,4.13-2.28,7.39-5.43,9.76-9.47,2.38-4.03,3.56-8.55,3.56-13.55s-1.19-9.52-3.56-13.55Z"/>
  <path class="st0" d="M376.93,140.89c3.81-1.24,6.74-3.25,8.8-6.05,2.05-2.8,3.08-6.22,3.08-10.28,0-5.54-1.88-9.9-5.64-13.07-3.76-3.17-8.96-4.75-15.59-4.75h-19.45v51.98h5.5v-47.22h13.81c5.15,0,9.08,1.13,11.81,3.38,2.72,2.25,4.08,5.48,4.08,9.69s-1.36,7.3-4.08,9.58c-1.89,1.58-4.39,2.6-7.45,3.09v4.86l11.83,16.63h6.01l-12.7-17.82Z"/>
  <path class="st0" d="M568.65,124.97c-1.36-4.6-3.59-8.5-6.67-11.71-3.27-3.4-7.16-5.72-11.68-6.97-4.51-1.25-9.18-1.22-14.01.07-4.83,1.3-8.88,3.62-12.16,6.96-3.28,3.34-5.48,7.3-6.61,11.89-1.13,4.58-1.02,9.36.31,14.33s3.66,9.18,6.97,12.62c3.31,3.44,7.2,5.78,11.69,7.01,4.48,1.23,9.14,1.2,13.97-.1,4.83-1.3,8.87-3.6,12.14-6.91,3.15-3.19,5.3-7,6.47-11.43,0,0-.1.4-.06.24.08-.34,0,.1.06-.24l-5.38.03c-1.02,2.81-2.58,5.3-4.73,7.46-2.68,2.7-5.99,4.57-9.91,5.62-3.92,1.05-7.72,1.09-11.39.1-3.67-.99-6.84-2.85-9.5-5.6-2.66-2.75-4.52-6.1-5.59-10.07-1.07-3.97-1.13-7.79-.2-11.48.93-3.68,2.74-6.86,5.43-9.53,2.69-2.67,6-4.53,9.92-5.59,3.92-1.05,7.71-1.1,11.38-.14,3.67.96,6.83,2.8,9.48,5.52,2.17,2.22,3.8,4.86,4.91,7.91"/>
  <path class="st0" d="M641.14,119.17c-2.38-4.03-5.63-7.19-9.76-9.47-4.13-2.28-8.77-3.42-13.92-3.42s-9.81,1.15-14,3.45c-4.18,2.3-7.45,5.46-9.8,9.47-2.35,4.01-3.53,8.51-3.53,13.51s1.18,9.5,3.53,13.51c2.35,4.01,5.62,7.17,9.8,9.47.3.17.62.32.93.47v-5.92c-2.44-1.72-4.45-3.87-5.98-6.5-1.91-3.29-2.86-6.97-2.86-11.03s.95-7.73,2.86-11.03c1.91-3.29,4.53-5.87,7.87-7.72,3.34-1.86,7.07-2.78,11.18-2.78s7.82.93,11.14,2.78c3.32,1.86,5.91,4.43,7.8,7.72,1.88,3.29,2.82,6.97,2.82,11.03s-.94,7.73-2.82,11.03c-1.88,3.29-4.48,5.87-7.8,7.72-3.32,1.86-7.03,2.78-11.14,2.78-.03,0-.05,0-.07,0v4.9s.05,0,.07,0c5.15,0,9.79-1.14,13.92-3.42,4.13-2.28,7.39-5.43,9.76-9.47,2.38-4.03,3.56-8.55,3.56-13.55s-1.19-9.52-3.56-13.55Z"/>
  <path class="st0" d="M699.99,140.89c3.81-1.24,6.74-3.25,8.8-6.05,2.05-2.8,3.08-6.22,3.08-10.28,0-5.54-1.88-9.9-5.64-13.07-3.76-3.17-8.96-4.75-15.59-4.75h-19.45v51.98h5.5v-47.22h13.81c5.15,0,9.08,1.13,11.81,3.38,2.72,2.25,4.08,5.48,4.08,9.69s-1.36,7.3-4.08,9.58c-1.89,1.58-4.39,2.6-7.45,3.09v4.86l11.83,16.63h6.01l-12.7-17.82Z"/>
  <g>
    <polygon class="st0" points="753.57 111.48 757.14 111.48 783.72 111.48 783.72 106.73 748.08 106.73 748.08 111.48 753.57 111.48"/>
    <polygon class="st0" points="753.57 153.95 753.57 134.65 780.45 134.65 780.45 129.97 753.57 129.97 753.57 129.95 748.08 129.95 748.08 158.71 784.83 158.71 784.83 153.95 753.57 153.95"/>
  </g>
</svg>